<svg xmlns="http://www.w3.org/2000/svg" version="1.1" xmlns:xlink="http://www.w3.org/1999/xlink" width="512" height="512" x="0" y="0" viewBox="0 0 64 64" style="enable-background:new 0 0 512 512" xml:space="preserve" class=""><g><circle cx="46" cy="46" r="18" fill="#ea9706" opacity="1" data-original="#ea9706"></circle><circle cx="46" cy="46" r="14" fill="#ffac00" opacity="1" data-original="#ffac00"></circle><g fill="#f3f3f3"><path d="M47.5 47H42a1 1 0 0 1-1-1v-7a1 1 0 0 1 1-1h5.5a4.5 4.5 0 0 1 0 9zM43 45h4.5a2.5 2.5 0 0 0 0-5H43z" fill="#f3f3f3" opacity="1" data-original="#f3f3f3"></path><path d="M48.5 54H42a1 1 0 0 1-1-1v-7a1 1 0 0 1 1-1h6.5a4.5 4.5 0 0 1 0 9zM43 52h5.5a2.5 2.5 0 0 0 0-5H43zM44 40a1 1 0 0 1-1-1v-2a1 1 0 0 1 2 0v2a1 1 0 0 1-1 1zM48 40a1 1 0 0 1-1-1v-2a1 1 0 0 1 2 0v2a1 1 0 0 1-1 1z" fill="#f3f3f3" opacity="1" data-original="#f3f3f3"></path><path d="M48 56a1 1 0 0 1-1-1v-2a1 1 0 0 1 2 0v2a1 1 0 0 1-1 1zM44 56a1 1 0 0 1-1-1v-2a1 1 0 0 1 2 0v2a1 1 0 0 1-1 1zM42 40h-2a1 1 0 0 1 0-2h2a1 1 0 0 1 0 2z" fill="#f3f3f3" opacity="1" data-original="#f3f3f3"></path><path d="M42 54h-2a1 1 0 0 1 0-2h2a1 1 0 0 1 0 2z" fill="#f3f3f3" opacity="1" data-original="#f3f3f3"></path></g><circle cx="18" cy="18" r="18" fill="#00bebd" opacity="1" data-original="#00bebd"></circle><circle cx="18" cy="18" r="14" fill="#50d9d7" opacity="1" data-original="#50d9d7"></circle><path fill="#f3f3f3" d="M19 27h-2a5 5 0 0 1-5-5 1 1 0 0 1 2 0 3 3 0 0 0 3 3h2a3 3 0 0 0 0-6h-2a5 5 0 0 1 0-10h2a5 5 0 0 1 5 5 1 1 0 0 1-2 0 3 3 0 0 0-3-3h-2a3 3 0 0 0 0 6h2a5 5 0 0 1 0 10z" opacity="1" data-original="#f3f3f3"></path><path fill="#f3f3f3" d="M18 29a1 1 0 0 1-1-1V8a1 1 0 0 1 2 0v20a1 1 0 0 1-1 1z" opacity="1" data-original="#f3f3f3"></path><path fill="#93e6e5" d="M49.71 21.29a1 1 0 0 0-1.42 0l-.29.3V19a5 5 0 0 0-5-5h-3a1 1 0 0 0 0 2h3a3 3 0 0 1 3 3v2.59l-.29-.3a1 1 0 0 0-1.42 1.42l2 2a1 1 0 0 0 1.42 0l2-2a1 1 0 0 0 0-1.42zM24 48h-3a3 3 0 0 1-3-3v-2.59l.29.3a1 1 0 0 0 1.42-1.42l-2-2a1 1 0 0 0-1.42 0l-2 2a1 1 0 0 0 1.42 1.42l.29-.3V45a5 5 0 0 0 5 5h3a1 1 0 0 0 0-2z" opacity="1" data-original="#93e6e5"></path></g></svg>